<svg xmlns="http://www.w3.org/2000/svg" width="6.151" height="11.377" viewBox="0 0 6.151 11.377">
  <path id="Path_613" data-name="Path 613" d="M28,0,26.521,0a2.591,2.591,0,0,0-2.729,2.8V4.091H22.309a.232.232,0,0,0-.232.232v1.87a.232.232,0,0,0,.232.232h1.483v4.72a.232.232,0,0,0,.232.232H25.96a.232.232,0,0,0,.232-.232V6.425h1.734a.232.232,0,0,0,.232-.232V4.323a.232.232,0,0,0-.232-.232H26.192V3c0-.526.125-.793.811-.793H28a.232.232,0,0,0,.232-.232V.234A.232.232,0,0,0,28,0Z" transform="translate(-22.077)" fill="#fff"/>
</svg>
