<svg id="home" xmlns="http://www.w3.org/2000/svg" width="22.107" height="20.724" viewBox="0 0 22.107 20.724">
  <path id="Path_668" data-name="Path 668" d="M56.667,205.09H41.986A1.988,1.988,0,0,1,40,203.1v-10.45a.691.691,0,0,1,1.382,0V203.1a.605.605,0,0,0,.6.6H56.667a.605.605,0,0,0,.6-.6v-10.45a.691.691,0,0,1,1.382,0V203.1A1.988,1.988,0,0,1,56.667,205.09Z" transform="translate(-38.274 -184.367)" fill="#f60"/>
  <path id="Path_669" data-name="Path 669" d="M21.417,26.723a.688.688,0,0,1-.488-.2l-8.592-8.592a1.815,1.815,0,0,0-2.565,0L1.18,26.52A.691.691,0,1,1,.2,25.543l8.592-8.592a3.2,3.2,0,0,1,4.519,0l8.592,8.592a.691.691,0,0,1-.488,1.179Z" transform="translate(0 -16.017)" fill="#f60"/>
  <path id="Path_670" data-name="Path 670" d="M182.218,296.964h-5.527a.691.691,0,0,1-.691-.691v-6.131a2.161,2.161,0,0,1,2.159-2.159h2.591a2.161,2.161,0,0,1,2.159,2.159v6.131A.691.691,0,0,1,182.218,296.964Zm-4.836-1.382h4.145v-5.44a.778.778,0,0,0-.777-.777h-2.591a.778.778,0,0,0-.777.777Z" transform="translate(-168.401 -276.24)" fill="#f60"/>
</svg>
