<svg xmlns="http://www.w3.org/2000/svg" xmlns:xlink="http://www.w3.org/1999/xlink" width="794.001" height="199.91" viewBox="0 0 394.001 99.91">
  <defs>
    <filter id="O" x="0" y="0" width="394.001" height="99.91" filterUnits="userSpaceOnUse">
      <feOffset input="SourceAlpha"/>
      <feGaussianBlur stdDeviation="10" result="blur"/>
      <feFlood flood-color="#d6ad5c"/>
      <feComposite operator="in" in2="blur"/>
      <feComposite in="SourceGraphic"/>
    </filter>
  </defs>
  <g transform="matrix(1, 0, 0, 1, 0, 0)" filter="url(#O)">
    <path id="O-2" data-name="O" d="M1091.817,77.994a20.344,20.344,0,0,1-6.309,1.934l.265.813,2.484-.418a84.2,84.2,0,0,1,1.67,17.055c0,.792-.016,1.474-.044,2.047l-2.926-.241-.2.989q2.065.132,3.167.132a16.208,16.208,0,0,0,3.451-.571l-.265-.989-2.376.594.859-11.576a12.581,12.581,0,0,1,.879-2.233,10.785,10.785,0,0,1,2.408-3.433,4.782,4.782,0,0,1,3.375-1.464,4.714,4.714,0,0,1,3.865,2.429,8.993,8.993,0,0,1,1.673,5.2q0,11.43-4.286,11.43-1.89,0-1.89-2.1A2.848,2.848,0,0,1,1098,96.2c.249-.459.534-.689.843-.689a.776.776,0,0,1,.867.889c0,.535-.148.8-.449.8a1.8,1.8,0,0,1-.514-.088l-.181.22q.133.33.9.329,1.668,0,1.669-1.365,0-1.429-2.308-1.429a3.154,3.154,0,0,0-1.934.726,2.072,2.072,0,0,0-.947,1.648,2.993,2.993,0,0,0,1.112,2.176,3.34,3.34,0,0,0,2.275,1.033q2.679,0,5.1-3.759a14.276,14.276,0,0,0,2.416-7.826,9.1,9.1,0,0,0-2.617-6.473,7.946,7.946,0,0,0-5.892-2.758q-4.611,0-6.943,6.572Zm30.333,19.123a3.2,3.2,0,0,1-2.966,1.67q-2.552,0-4.114-3.044a14.848,14.848,0,0,1-1.561-6.869,11.929,11.929,0,0,1,2-6.572q2-3.1,4.989-3.1a3.956,3.956,0,0,1,2.585.956,2.918,2.918,0,0,1,1.152,2.319,2.874,2.874,0,0,1-.69,1.945,2.258,2.258,0,0,1-1.794.8q-1.626,0-1.625-1.759a1.707,1.707,0,0,1,.3-.923.835.835,0,0,1,.69-.462c.457,0,.682.183.682.549a4.267,4.267,0,0,1-.221.945h.265a1.251,1.251,0,0,0,.759-.319.848.848,0,0,0,.405-.626.942.942,0,0,0-.514-.824,2.168,2.168,0,0,0-1.156-.319,2.528,2.528,0,0,0-1.734.562,1.981,1.981,0,0,0-.638,1.572,2.031,2.031,0,0,0,.987,1.747,3.914,3.914,0,0,0,2.244.67,3.772,3.772,0,0,0,2.649-1.209,3.536,3.536,0,0,0,1.24-2.528,3.21,3.21,0,0,0-1.866-2.693,7.078,7.078,0,0,0-3.672-1.132,9.576,9.576,0,0,0-7.011,3.13,9.878,9.878,0,0,0-3.078,7.089,11.879,11.879,0,0,0,2.528,7.539,7.619,7.619,0,0,0,6.2,3.231,15.7,15.7,0,0,0,3.909-.637Zm17.233-1.073a.6.6,0,0,1-.53.414q-1.12,0-1.12-.954a1.236,1.236,0,0,1,.441-.954,1.508,1.508,0,0,1,1.052-.4,3.455,3.455,0,0,1,2.067.682,1.994,1.994,0,0,1,.947,1.649,2.8,2.8,0,0,1-1.332,2.363,4.609,4.609,0,0,1-2.669.934,5.944,5.944,0,0,1-4.848-2.528,10.138,10.138,0,0,1-1.966-6.4,13.887,13.887,0,0,1,1.714-7.419q1.714-2.737,4.154-2.736a4.124,4.124,0,0,1,3.3,1.626,5.286,5.286,0,0,1,1.34,3.407,3.892,3.892,0,0,1-.923,2.725,3.331,3.331,0,0,1-2.593,1.011,7.336,7.336,0,0,1-3.331-.692q-1.373-.692-1.373-1.659a2.771,2.771,0,0,1,.349-1.33c.237-.432.486-.649.75-.649a1.47,1.47,0,0,1,.943.315,1.039,1.039,0,0,1,.4.859q0,.7-1.036.979,0,.638.9.638a1.347,1.347,0,0,0,.955-.571,1.852,1.852,0,0,0,.494-1.231,1.275,1.275,0,0,0-.714-1.066,2.92,2.92,0,0,0-1.593-.451,2.886,2.886,0,0,0-1.89.769,2.478,2.478,0,0,0-.9,1.979,2.294,2.294,0,0,0,1.449,2.087,9.228,9.228,0,0,0,4.134.747,7.264,7.264,0,0,0,4.6-1.429,4.447,4.447,0,0,0,1.834-3.671q0-1.8-2.139-3.462a7.447,7.447,0,0,0-4.651-1.659q-3.341,0-6.309,3.253a10.475,10.475,0,0,0-2.966,7.232,9.621,9.621,0,0,0,3.054,7.177,9.385,9.385,0,0,0,6.618,2.956,6.31,6.31,0,0,0,3.592-1.1,3.406,3.406,0,0,0,1.637-2.967,3.631,3.631,0,0,0-.967-2.6,3.183,3.183,0,0,0-2.416-1.022,2.954,2.954,0,0,0-2.023.714,2.485,2.485,0,0,0-.815,1.966,2.219,2.219,0,0,0,1.979,2.132,1.737,1.737,0,0,0,1.068-.451,1.352,1.352,0,0,0,.558-1.088c0-.659-.341-.989-1.031-.989a1.966,1.966,0,0,1-.2.865Zm40.751,2.963a12.711,12.711,0,0,1-2.946.989q-.789-12.03-.791-19.465l2.239-.626-.217-.879a23.974,23.974,0,0,1-7.3,1.209l-.088.945,2.332-.134a132.233,132.233,0,0,1,2.307,13.828q-2.42,4.529-5.8,4.528a5.448,5.448,0,0,1-4.406-1.956,8.1,8.1,0,0,1-1.637-5.363q0-2.288,2.352-6.44a7.794,7.794,0,0,0,1.076-3.913,3.974,3.974,0,0,0-.811-2.517,2.513,2.513,0,0,0-2.067-1.043,2.81,2.81,0,0,0-2.155,1.275,4.2,4.2,0,0,0-1.011,2.638,2.126,2.126,0,0,0,.582,1.4,1.675,1.675,0,0,0,1.264.67,1.825,1.825,0,0,0,1.332-.626,1.926,1.926,0,0,0,.6-1.352,1.241,1.241,0,0,0-.317-.846.937.937,0,0,0-.714-.361,1.227,1.227,0,0,0-.746.527c.63.118.943.361.943.726a.423.423,0,0,1-.141.352,1.409,1.409,0,0,1-.714.11,1.3,1.3,0,0,1-.9-.385,1.181,1.181,0,0,1-.417-.89,1.47,1.47,0,0,1,.8-1.253,3.106,3.106,0,0,1,1.682-.506q2.023,0,2.023,2.352a4.747,4.747,0,0,1-.758,2.11,11.079,11.079,0,0,1-1.8,2.385,9.841,9.841,0,0,0-1.858,2.737,7.211,7.211,0,0,0-.815,3.077,7.643,7.643,0,0,0,2.484,5.748,7.763,7.763,0,0,0,5.45,2.363q3.893,0,6.662-4.022l.506,5.187a24.706,24.706,0,0,1,4.09-1.539Zm12.245-13.584a1.867,1.867,0,0,1-.377,1.154,1.177,1.177,0,0,1-.987.495,1.317,1.317,0,0,1-.991-.638,2.31,2.31,0,0,1-.482-1.429,3.38,3.38,0,0,1,.947-2.44,2.99,2.99,0,0,1,2.24-.989,4.234,4.234,0,0,1,3.5,2.242,9.733,9.733,0,0,1,1.493,5.517,8.449,8.449,0,0,1-1.91,5.44,5.474,5.474,0,0,1-4.286,2.385,6.439,6.439,0,0,1-5.406-3.01q0-1.868.538-7.462a44.37,44.37,0,0,1,1.4-8.342,44.722,44.722,0,0,1-7.477,2.2l.177.945a37.616,37.616,0,0,1,3.981-.989A69.137,69.137,0,0,0,1184,92.26a117.355,117.355,0,0,0,.855,15.386q-.723,0-3.428.176l-.044.945q2.9-.22,3.825-.22a18.434,18.434,0,0,0,3.78-.528l-.132-1.275a11.494,11.494,0,0,1-3.142.769,32.305,32.305,0,0,1-.153-3.407q0-3.165.417-8.44,2.414,2.485,4.812,2.484a9.862,9.862,0,0,0,7.08-2.8q2.92-2.8,2.922-5.836a8.711,8.711,0,0,0-2.276-6.221,7.816,7.816,0,0,0-5.968-2.418,4.652,4.652,0,0,0-3.066,1.429,3.831,3.831,0,0,0-1.569,2.572,3.023,3.023,0,0,0,.7,2.087,2.48,2.48,0,0,0,1.954.791,3.7,3.7,0,0,0,2.179-.8,2.209,2.209,0,0,0,1.1-1.726,2.066,2.066,0,0,0-.646-1.077c-.433-.484-.8-.725-1.112-.725a1.144,1.144,0,0,0-.766.176.882.882,0,0,0-.177.637c.819,0,1.232.4,1.232,1.187h0Zm20.332-.814a.468.468,0,0,1,.51-.549c.819,0,1.224.361,1.224,1.077a1.427,1.427,0,0,1-.706,1.043,2.331,2.331,0,0,1-1.413.539,1.706,1.706,0,0,1-1.128-.562,1.753,1.753,0,0,1-.6-1.33,3.39,3.39,0,0,1,.859-2.231,2.705,2.705,0,0,1,2.159-1.022A4.872,4.872,0,0,1,1217.695,84a10.286,10.286,0,0,1,1.673,5.99,11.208,11.208,0,0,1-1.926,6.528q-1.927,2.792-4.218,2.792a5.584,5.584,0,0,1-4.832-2.759,12.7,12.7,0,0,1-1.838-7.177,10.523,10.523,0,0,1,1.842-5.98,7.028,7.028,0,0,1,4.664-3.253l-.265-.549a11.846,11.846,0,0,0-6.377,3.913,9.506,9.506,0,0,0,.241,13.508,9.075,9.075,0,0,0,6.61,2.979q3.239,0,6.064-3.3a11.082,11.082,0,0,0,2.829-7.407,8.495,8.495,0,0,0-2.468-5.957,7.347,7.347,0,0,0-5.438-2.638,4.146,4.146,0,0,0-2.841,1.319,3.973,3.973,0,0,0-.738,5.2,1.866,1.866,0,0,0,1.549.934,2.7,2.7,0,0,0,2.043-.824,3.078,3.078,0,0,0,.795-2.231,1.576,1.576,0,0,0-.562-1.132,1.711,1.711,0,0,0-1.2-.539,1.756,1.756,0,0,0-1.055.352,1.093,1.093,0,0,0-.245,1.594.705.705,0,0,0,.53.275.9.9,0,0,0,.77-.506c-.4-.19-.594-.366-.594-.528h0Zm17.165-6.616a20.281,20.281,0,0,1-6.309,1.934l.265.813,2.484-.418a84.2,84.2,0,0,1,1.67,17.055c0,.792-.016,1.474-.044,2.047l-2.922-.241-.2.989c1.38.088,2.432.132,3.166.132a16.2,16.2,0,0,0,3.452-.571l-.265-.989-2.372.594.855-11.576a12.572,12.572,0,0,1,.879-2.233,10.788,10.788,0,0,1,2.408-3.433,4.783,4.783,0,0,1,3.375-1.464,4.724,4.724,0,0,1,3.869,2.429,9.017,9.017,0,0,1,1.67,5.2q0,11.43-4.286,11.43-1.89,0-1.89-2.1a2.851,2.851,0,0,1,.377-1.388q.379-.689.843-.689a.776.776,0,0,1,.867.889q0,.8-.445.8a1.824,1.824,0,0,1-.518-.088l-.181.22q.132.33.9.329,1.667,0,1.67-1.365c0-.952-.766-1.429-2.308-1.429a3.154,3.154,0,0,0-1.934.726,2.067,2.067,0,0,0-.943,1.648,2.986,2.986,0,0,0,1.108,2.176,3.355,3.355,0,0,0,2.275,1.033q2.685,0,5.1-3.759a14.279,14.279,0,0,0,2.416-7.826A9.11,9.11,0,0,0,1242.3,82.4a7.959,7.959,0,0,0-5.892-2.758q-4.617,0-6.947,6.572Zm36.951,7.693a.455.455,0,0,1-.462-.558.89.89,0,0,1,.209-.558.593.593,0,0,1,.47-.268,1.748,1.748,0,0,1,1.124.407,1.2,1.2,0,0,1,.506.956,2.577,2.577,0,0,1-.815,1.824,2.385,2.385,0,0,1-1.714.835,1.525,1.525,0,0,1-1.22-.592,2.153,2.153,0,0,1-.494-1.426,8.385,8.385,0,0,1,1.164-4.746,4.3,4.3,0,0,1,3.845-1.721q2.926,0,2.926,6.374a15.408,15.408,0,0,1-1.625,6.308q-2.751.264-4,.264a5.249,5.249,0,0,0-3.2,1.066A3.045,3.045,0,0,0,1262.1,96.3a3.122,3.122,0,0,0,.967,2.385,3.448,3.448,0,0,0,2.464.912q1.2,0,3.953-1.8l-.044,2.923h.9c-.028-.308-.044-.608-.044-.9a16.826,16.826,0,0,1,2.813-8.548,22.654,22.654,0,0,0,1.637-3.211,8.867,8.867,0,0,0,.538-3.275,7.056,7.056,0,0,0-1.449-4.517,4.411,4.411,0,0,0-3.584-1.835,6.815,6.815,0,0,0-4.989,2.638,7.85,7.85,0,0,0-2.4,5.187,2.418,2.418,0,0,0,.9,1.966,3.369,3.369,0,0,0,2.2.736,4.532,4.532,0,0,0,2.617-1.2,3.381,3.381,0,0,0,1.517-2.627q0-1.714-2.97-1.714a1.944,1.944,0,0,0-1.758,1.758,1.28,1.28,0,0,0,.309.891,1.017,1.017,0,0,0,.791.34.954.954,0,0,0,1.031-.9,1.333,1.333,0,0,1-.678.176h0Zm2.833,11.034a4.585,4.585,0,0,1-3.01,1.692,1.538,1.538,0,0,1-1.244-.571,2.207,2.207,0,0,1-.47-1.45,2.759,2.759,0,0,1,.69-1.769,2.884,2.884,0,0,1,1.826-1.033q1.132-.186,2.978-.3ZM1303.488,77.4q-1.294.374-2.263.562c-.646.125-1.882.482-3.716,1.066a34.4,34.4,0,0,0,.53-6.352l-3.781.637a33.809,33.809,0,0,1,.373,5.078c0,.586-.016,1.1-.044,1.539l-4.066.944v1.209l4.066-1.164q.042.923-.474,6.605T1293.6,94.5a5.861,5.861,0,0,0,1.513,4.21,5.354,5.354,0,0,0,4.069,1.593,3.631,3.631,0,0,0,2.946-1.769,6.476,6.476,0,0,0,1.272-3.857,2.27,2.27,0,0,0-1.2-1.759,4.185,4.185,0,0,0-2.408-.835,2.616,2.616,0,0,0-1.77.736,2.2,2.2,0,0,0-.823,1.681,1.433,1.433,0,0,0,.646,1.2,2.3,2.3,0,0,0,1.376.473,1.088,1.088,0,0,0,.823-.451,1.68,1.68,0,0,0,.385-1.132l-.265-.176q-.265.946-.855.945a.544.544,0,0,1-.594-.637,2.328,2.328,0,0,1,.349-1.275,1.062,1.062,0,0,1,.923-.549,1.46,1.46,0,0,1,1.168.791,2.793,2.793,0,0,1,.526,1.539,6.046,6.046,0,0,1-.734,3.154,2.328,2.328,0,0,1-2.1,1.22,3.426,3.426,0,0,1-2.894-1.341,6.275,6.275,0,0,1-1.019-3.847,43.953,43.953,0,0,1,1.184-7.44q1.192-5.506,1.3-6.913a20.992,20.992,0,0,1,3.415-.846c.783-.1,1.778-.253,2.978-.473Zm5.077-6.023a2.949,2.949,0,0,0-2.175,1.1,3.625,3.625,0,0,0-1.011,2.528,2.959,2.959,0,0,0,.967,2.264,3.218,3.218,0,0,0,2.264.9,3.492,3.492,0,0,0,2.035-.649,1.886,1.886,0,0,0,.935-1.572,1.53,1.53,0,0,0-.75-1.365,2.934,2.934,0,0,0-1.625-.482,1.632,1.632,0,0,0-1.12.407,1.234,1.234,0,0,0-.462.956,1.386,1.386,0,0,0,.273.7.771.771,0,0,0,.626.418q.8,0,1.036-1.143a1.378,1.378,0,0,1-.694.264q-.626,0-.626-.518a.528.528,0,0,1,.285-.441.975.975,0,0,1,.522-.183q1.284,0,1.28,1.67c0,.982-.554,1.472-1.67,1.472a2.765,2.765,0,0,1-1.714-.7,2.3,2.3,0,0,1-.879-1.89,2.138,2.138,0,0,1,1.031-1.737,3.823,3.823,0,0,1,2.288-.747,2.74,2.74,0,0,1,2.484,1.341l.265-.044q-.638-2.55-3.564-2.55h0Zm5.145,27.805a37.046,37.046,0,0,1-4.728.286l.53-11.166.462-7.078,1.978-.482V79.731a15.167,15.167,0,0,1-4.2.813c-.586,0-1.637-.014-3.146-.044v.813l2.44.088a161,161,0,0,1,.991,18.244l-2.837.088v1.208c.618-.132,1.34-.253,2.179-.361s2.942-.165,6.329-.165V99.184Zm14.913-18.057a5.9,5.9,0,0,0-3.4-1.022,5.434,5.434,0,0,0-3.375,1.33,6.2,6.2,0,0,0-2.163,2.759,26.951,26.951,0,0,1,.526-5.166,25.782,25.782,0,0,1-7.1,1.164l.044.945,2.922-.308a68.327,68.327,0,0,1,2.4,18.574l-2.9.594.289.945a24.306,24.306,0,0,1,6.57-.726V99.138l-2.922.132q0-.747.088-6l.133-7.055a4.321,4.321,0,0,1,.759-2.352,5.358,5.358,0,0,1,1.7-1.7,3.758,3.758,0,0,1,1.954-.583,4.027,4.027,0,0,1,3.319,2,7.211,7.211,0,0,1,1.409,4.22,30.531,30.531,0,0,1-.614,7.572q-.62,2.011-1.738,2.011a1.471,1.471,0,0,1-1.055-.4,1.31,1.31,0,0,1-.417-.989,1,1,0,0,1,.265-.7.73.73,0,0,1,.526-.286c.63,0,.947.146.947.441q0,.308-.53.506l.265.308a.972.972,0,0,0,.859-.484,1.927,1.927,0,0,0,.3-1.055,1.1,1.1,0,0,0-.437-.824,1.65,1.65,0,0,0-1.124-.384,1.841,1.841,0,0,0-1.525.67,2.657,2.657,0,0,0-.538,1.726,1.917,1.917,0,0,0,.734,1.55,2.463,2.463,0,0,0,1.593.6q1.89,0,3.307-2.945a17.337,17.337,0,0,0,1.421-7.5c0-.513-.04-1.121-.112-1.824l-.108-1.011a6.778,6.778,0,0,1,1.164-2.33,3.3,3.3,0,0,1,2.749-1.824,4.443,4.443,0,0,1,3.977,2.341,11.227,11.227,0,0,1,1.429,5.946,25.7,25.7,0,0,1-.891,7.737q-.891,2.659-2.492,2.66a2.524,2.524,0,0,1-1.5-.407,1.269,1.269,0,0,1-.57-1.088c0-1.069.385-1.605,1.164-1.605.542,0,.815.183.815.55a1.266,1.266,0,0,1-.638.989l.373.308a2.137,2.137,0,0,0,.879-.736,1.615,1.615,0,0,0,.373-.89,1.467,1.467,0,0,0-1.67-1.649,1.941,1.941,0,0,0-1.549.791,2.789,2.789,0,0,0,.121,3.715,2.622,2.622,0,0,0,2.023.835q2.4,0,4.286-3.736a19.509,19.509,0,0,0,1.89-8.9,10.236,10.236,0,0,0-1.75-6.352,5.9,5.9,0,0,0-4.977-2.288,4.525,4.525,0,0,0-3.11,1.462,9.379,9.379,0,0,0-2.32,3.616,5.1,5.1,0,0,0-2.055-2.8Zm29.618,14.917a.6.6,0,0,1-.526.414c-.75,0-1.124-.318-1.124-.954a1.249,1.249,0,0,1,.441-.954,1.511,1.511,0,0,1,1.055-.4,3.463,3.463,0,0,1,2.067.682,2,2,0,0,1,.943,1.649,2.791,2.791,0,0,1-1.328,2.363,4.62,4.62,0,0,1-2.673.934,5.934,5.934,0,0,1-4.844-2.528,10.125,10.125,0,0,1-1.97-6.4A13.862,13.862,0,0,1,1352,83.432q1.71-2.737,4.154-2.736a4.111,4.111,0,0,1,3.295,1.626,5.288,5.288,0,0,1,1.34,3.407,3.875,3.875,0,0,1-.923,2.725,3.327,3.327,0,0,1-2.593,1.011,7.336,7.336,0,0,1-3.331-.692q-1.372-.692-1.373-1.66a2.735,2.735,0,0,1,.353-1.33q.349-.649.746-.649a1.463,1.463,0,0,1,.943.315,1.039,1.039,0,0,1,.4.859c0,.464-.345.791-1.031.979,0,.425.3.638.9.638a1.339,1.339,0,0,0,.955-.572,1.855,1.855,0,0,0,.5-1.231,1.284,1.284,0,0,0-.714-1.066,2.943,2.943,0,0,0-1.6-.451,2.886,2.886,0,0,0-1.89.769,2.49,2.49,0,0,0-.9,1.979,2.294,2.294,0,0,0,1.449,2.087,9.229,9.229,0,0,0,4.134.747,7.258,7.258,0,0,0,4.6-1.429,4.451,4.451,0,0,0,1.838-3.671q0-1.8-2.143-3.462a7.44,7.44,0,0,0-4.651-1.66q-3.341,0-6.305,3.253a10.516,10.516,0,0,0-2.97,7.232,9.62,9.62,0,0,0,3.054,7.177,9.385,9.385,0,0,0,6.618,2.956,6.31,6.31,0,0,0,3.592-1.1,3.411,3.411,0,0,0,1.641-2.967,3.648,3.648,0,0,0-.967-2.6,3.2,3.2,0,0,0-2.42-1.022,2.954,2.954,0,0,0-2.023.714,2.481,2.481,0,0,0-.811,1.967,2.22,2.22,0,0,0,1.975,2.132,1.737,1.737,0,0,0,1.068-.451,1.357,1.357,0,0,0,.562-1.088q0-.989-1.036-.989a1.965,1.965,0,0,1-.2.866Zm8.4,1.469a2.131,2.131,0,0,0-.329,1.231q0,1.517,1.625,1.517c.955,0,1.429-.264,1.429-.791a2.75,2.75,0,0,0-.558-1.692,1.673,1.673,0,0,0-1.377-.747.953.953,0,0,0-.791.484Zm6.967,0a2.163,2.163,0,0,0-.329,1.231q0,1.517,1.63,1.517,1.427,0,1.429-.791a2.752,2.752,0,0,0-.562-1.692,1.666,1.666,0,0,0-1.373-.747.953.953,0,0,0-.795.484Zm6.971,0a2.132,2.132,0,0,0-.333,1.231q0,1.517,1.629,1.517c.951,0,1.429-.264,1.429-.791a2.755,2.755,0,0,0-.562-1.692,1.666,1.666,0,0,0-1.373-.747.943.943,0,0,0-.791.484ZM1062.243,76.255c0-.309.474-.464,1.417-.464a1.622,1.622,0,0,1,1.124.476,1.554,1.554,0,0,1,.514,1.184,1.733,1.733,0,0,1-.879,1.453,3.693,3.693,0,0,1-2.127.6,2.949,2.949,0,0,1-1.878-.733,2.267,2.267,0,0,1-.9-1.832,5.031,5.031,0,0,1,1.914-3.773,6.82,6.82,0,0,1,4.728-1.722,9.009,9.009,0,0,1,7.5,3.832,15.586,15.586,0,0,1,2.906,9.712,18.529,18.529,0,0,1-3,10.468q-3,4.539-7.645,4.539a11.862,11.862,0,0,1-9.427-4.294,15.558,15.558,0,0,1-3.688-10.518,19.115,19.115,0,0,1,2.737-10.322,10.8,10.8,0,0,1,7.228-5.271l-.317-.733a16.751,16.751,0,0,0-9.343,6.228,17.076,17.076,0,0,0-3.8,10.771,14.039,14.039,0,0,0,4.712,10.538,16.083,16.083,0,0,0,11.478,4.457q5.863,0,10.334-5.214A17.42,17.42,0,0,0,1080.291,84a13.423,13.423,0,0,0-4.125-9.427,12.591,12.591,0,0,0-9.307-4.324A8.284,8.284,0,0,0,1061,72.42a6.264,6.264,0,0,0-2.344,4.592,4.765,4.765,0,0,0,1.148,3.09,3.385,3.385,0,0,0,2.685,1.4,3.455,3.455,0,0,0,2.529-1.27,4.408,4.408,0,0,0,1.184-3.126,2.759,2.759,0,0,0-.855-1.759,2.314,2.314,0,0,0-1.589-.952,2.112,2.112,0,0,0-1.453.659,1.806,1.806,0,0,0-.694,1.2,2.187,2.187,0,0,0,.389,1.1q.391.635.807.635a1.172,1.172,0,0,0,1-.586q-1.565-.732-1.565-1.148h0Z" transform="translate(-1019.3 -38.86)" fill="#dbb77a" fill-rule="evenodd"/>
  </g>
</svg>
