<svg xmlns="http://www.w3.org/2000/svg" xmlns:xlink="http://www.w3.org/1999/xlink" width="351.815" height="140.248" viewBox="0 0 351.815 140.248">
  <defs>
    <filter id="T" x="0" y="0" width="351.815" height="140.248" filterUnits="userSpaceOnUse">
      <feOffset input="SourceAlpha"/>
      <feGaussianBlur stdDeviation="10" result="blur"/>
      <feFlood flood-color="#d6ad5c"/>
      <feComposite operator="in" in2="blur"/>
      <feComposite in="SourceGraphic"/>
    </filter>
  </defs>
  <g transform="matrix(1, 0, 0, 1, 0, 0)" filter="url(#T)">
    <path id="T-2" data-name="T" d="M2070.546,320.716a1.169,1.169,0,0,1-1.041.819q-2.216,0-2.216-1.889a2.464,2.464,0,0,1,.866-1.889,3,3,0,0,1,2.089-.794,6.857,6.857,0,0,1,4.091,1.351,3.938,3.938,0,0,1,1.867,3.263,5.526,5.526,0,0,1-2.63,4.677,9.142,9.142,0,0,1-5.283,1.849,11.744,11.744,0,0,1-9.6-5q-3.889-5-3.893-12.66,0-9.267,3.392-14.685t8.222-5.416a8.165,8.165,0,0,1,6.53,3.219,10.508,10.508,0,0,1,2.653,6.744,7.7,7.7,0,0,1-1.827,5.395,6.613,6.613,0,0,1-5.14,2,14.487,14.487,0,0,1-6.586-1.37q-2.729-1.37-2.725-3.285a5.5,5.5,0,0,1,.7-2.632q.691-1.283,1.478-1.284a2.932,2.932,0,0,1,1.875.624,2.07,2.07,0,0,1,.779,1.7c0,.919-.683,1.565-2.042,1.938,0,.842.6,1.262,1.78,1.262a2.667,2.667,0,0,0,1.9-1.131,3.665,3.665,0,0,0,.977-2.437,2.524,2.524,0,0,0-1.414-2.11,5.8,5.8,0,0,0-3.154-.892,5.7,5.7,0,0,0-3.741,1.523,4.912,4.912,0,0,0-1.788,3.916q0,2.653,2.876,4.131a18.261,18.261,0,0,0,8.174,1.479,14.406,14.406,0,0,0,9.12-2.828,8.8,8.8,0,0,0,3.63-7.266q0-3.566-4.242-6.853a14.722,14.722,0,0,0-9.2-3.285q-6.613,0-12.488,6.439a20.734,20.734,0,0,0-5.87,14.314,19.013,19.013,0,0,0,6.045,14.205q6.037,5.852,13.092,5.852a12.515,12.515,0,0,0,7.118-2.175,6.741,6.741,0,0,0,3.241-5.874,7.222,7.222,0,0,0-1.915-5.156,6.329,6.329,0,0,0-4.79-2.023,5.842,5.842,0,0,0-4,1.414,4.893,4.893,0,0,0-1.613,3.892,4.391,4.391,0,0,0,3.916,4.221,3.416,3.416,0,0,0,2.105-.892,2.665,2.665,0,0,0,1.112-2.154c0-1.305-.684-1.958-2.042-1.958a3.894,3.894,0,0,1-.4,1.712Zm24.539-35.728a40.165,40.165,0,0,1-12.488,3.829l.524,1.609,4.917-.826a166.074,166.074,0,0,1,3.3,33.757c0,1.568-.024,2.919-.087,4.051l-5.783-.477-.389,1.958q4.087.261,6.26.261a31.994,31.994,0,0,0,6.832-1.131l-.524-1.957-4.695,1.175,1.7-22.913a24.884,24.884,0,0,1,1.74-4.421,21.444,21.444,0,0,1,4.759-6.8,9.465,9.465,0,0,1,6.681-2.9q4.349,0,7.658,4.808a17.855,17.855,0,0,1,3.3,10.29q0,22.625-8.484,22.625-3.742,0-3.742-4.156a5.725,5.725,0,0,1,.747-2.748c.5-.909,1.056-1.363,1.676-1.363a1.536,1.536,0,0,1,1.716,1.76c0,1.06-.3,1.589-.89,1.589a3.657,3.657,0,0,1-1.025-.174l-.349.435c.175.435.763.652,1.78.652q3.312,0,3.313-2.7,0-2.827-4.576-2.828a6.2,6.2,0,0,0-3.821,1.436,4.08,4.08,0,0,0-1.875,3.263,5.9,5.9,0,0,0,2.2,4.308,6.608,6.608,0,0,0,4.5,2.045q5.314,0,10.1-7.44a28.205,28.205,0,0,0,4.79-15.491,18.042,18.042,0,0,0-5.179-12.814q-5.183-5.46-11.662-5.46-9.14,0-13.751,13.009Zm73.442-22.451a102.192,102.192,0,0,1-14.355,1.219v1.609h4.441L2157,298.433a15.14,15.14,0,0,0-4.29-4.528,8.222,8.222,0,0,0-4.5-1.61q-5.529,0-10.835,5.373a16.97,16.97,0,0,0-5.307,12.248,17.727,17.727,0,0,0,4.568,12.247,15.029,15.029,0,0,0,11.749,5.112,7.156,7.156,0,0,0,5.021-2.3,6.911,6.911,0,0,0,2.375-5,9.728,9.728,0,0,0-1.676-5.917,5.243,5.243,0,0,0-4.417-2.262,5.413,5.413,0,0,0-3.916,1.675,5.779,5.779,0,0,0-1.7,4.286,4.38,4.38,0,0,0,3.964,4.22,3.4,3.4,0,0,0,2.065-.891,2.686,2.686,0,0,0,1.112-2.154q0-1.957-2.05-1.958a3.765,3.765,0,0,1-.389,1.675,1.184,1.184,0,0,1-1.049.8q-2.217,0-2.216-1.871a2.29,2.29,0,0,1,1.152-1.827,3.574,3.574,0,0,1,1.8-.827,6.069,6.069,0,0,1,3.964,1.523,4.505,4.505,0,0,1,1.827,3.524,5.6,5.6,0,0,1-1.875,4.09,5.667,5.667,0,0,1-4,1.827q-4.838,0-7.468-4.721t-2.629-12.335a18.688,18.688,0,0,1,2.868-10.029q2.871-4.633,7.054-4.634,4.695,0,8.611,6.918,0,19.015,1.216,23.364t3.964,5.178l1.263-1.741q-3.742-1.7-3.741-8.665a269.84,269.84,0,0,1,2.28-30.171q2.28-19.113,3.853-24.382l2.955-.653Zm-194.342,60.8q0-2.436,1.263-2.436c.667,0,1.263.472,1.8,1.414a5.894,5.894,0,0,1,.8,2.98,3.7,3.7,0,0,1-.8,2.48,2.78,2.78,0,0,1-2.24.953,8.248,8.248,0,0,1-3.805-1.2,4.245,4.245,0,0,1-2.2-4.068,9.1,9.1,0,0,1,.723-3.807,27.95,27.95,0,0,1,2.328-3.982q5.434-8,5.434-14.488a13.357,13.357,0,0,0-3.766-9.071,12.3,12.3,0,0,0-9.588-4.2,12.154,12.154,0,0,0-7.182,2.5,16.537,16.537,0,0,0-5.394,6.679l-1.049-19.443q-.513-10.047-1.168-15.049,1.967-.293,5.219-.924l-.088-1.74q-12.333,2.349-18.271,2.393l.088,1.741q4.289-.211,6.172-.5a321.562,321.562,0,0,1,5.505,34.45q2.538,21.784,2.288,29.837a62.659,62.659,0,0,1-7.229.348l.087,2.045a56.779,56.779,0,0,1,9.485-.609,59.9,59.9,0,0,1,6.181.261l.175-2.35q-4.051-.043-6.482.087-.393-13.444-.739-26.888,0-2.045,3.019-5.7t6.641-3.654q10.486,0,10.486,14.1a27.468,27.468,0,0,1-2.311,10.009,26.759,26.759,0,0,0-2.3,9.4,7.341,7.341,0,0,0,1.875,4.677q1.871,2.284,3.742,2.284a6.524,6.524,0,0,0,5.021-2.523,9.12,9.12,0,0,0,2.2-6.222,2.792,2.792,0,0,0-1.7-2.828,7.2,7.2,0,0,0-2.566-.74,3.7,3.7,0,0,0-2.439,1.022,2.907,2.907,0,0,0-1.176,2.154,1.918,1.918,0,0,0,2.351,2.175,2.26,2.26,0,0,1-.389-1.566h0Zm33.675-4.21a1.185,1.185,0,0,1-1.041.819c-1.485,0-2.224-.63-2.224-1.889a2.473,2.473,0,0,1,.874-1.889,2.991,2.991,0,0,1,2.089-.794,6.832,6.832,0,0,1,4.083,1.351,3.947,3.947,0,0,1,1.875,3.263,5.526,5.526,0,0,1-2.63,4.677,9.146,9.146,0,0,1-5.291,1.849,11.744,11.744,0,0,1-9.588-5q-3.892-5-3.9-12.66,0-9.267,3.4-14.685,3.384-5.417,8.222-5.416a8.149,8.149,0,0,1,6.522,3.219,10.466,10.466,0,0,1,2.653,6.744,7.67,7.67,0,0,1-1.827,5.395,6.593,6.593,0,0,1-5.132,2,14.521,14.521,0,0,1-6.593-1.37q-2.717-1.37-2.717-3.285a5.415,5.415,0,0,1,.7-2.632q.691-1.283,1.478-1.284a2.9,2.9,0,0,1,1.867.624,2.055,2.055,0,0,1,.786,1.7q0,1.379-2.049,1.938,0,1.263,1.787,1.262a2.652,2.652,0,0,0,1.891-1.131,3.674,3.674,0,0,0,.985-2.437,2.542,2.542,0,0,0-1.414-2.11,5.826,5.826,0,0,0-3.162-.892,5.711,5.711,0,0,0-3.742,1.523,4.929,4.929,0,0,0-1.78,3.916q0,2.653,2.868,4.131t8.182,1.479a14.366,14.366,0,0,0,9.112-2.828,8.809,8.809,0,0,0,3.638-7.266q0-3.566-4.242-6.853a14.728,14.728,0,0,0-9.207-3.285q-6.614,0-12.48,6.439a20.815,20.815,0,0,0-5.879,14.314,19.043,19.043,0,0,0,6.045,14.206q6.053,5.852,13.1,5.852a12.491,12.491,0,0,0,7.11-2.175,6.742,6.742,0,0,0,3.241-5.874,7.189,7.189,0,0,0-1.914-5.156,6.3,6.3,0,0,0-4.782-2.023,5.848,5.848,0,0,0-4,1.414,4.914,4.914,0,0,0-1.6,3.893,4.394,4.394,0,0,0,3.908,4.221,3.437,3.437,0,0,0,2.113-.892,2.685,2.685,0,0,0,1.112-2.154q0-1.958-2.049-1.958a3.891,3.891,0,0,1-.389,1.712Zm-91.9-60.255a1.628,1.628,0,0,1,1.359.725,2.478,2.478,0,0,1,.532,1.451,3.362,3.362,0,0,1-1.017,2.463,3.724,3.724,0,0,1-2.756,1.015,3.5,3.5,0,0,1-2.828-1.684,5.958,5.958,0,0,1-1.231-3.563,5.448,5.448,0,0,1,2.415-4.308,8.165,8.165,0,0,1,5.124-1.9,8.861,8.861,0,0,1,6.069,1.978,6.383,6.383,0,0,1,2.248,5.017,9.112,9.112,0,0,1-4.282,8.081q-4.29,2.822-16.428,4.993t-25.445,3.329l-.4-1.986-2.518.435a71.926,71.926,0,0,1,1.454,13.149l2.558-.29-.7-9.136q12.107-1.208,18.247-2.463,1.93,7.4,3.479,24.244t1.549,26.564l-6.045.387v2.659a44.851,44.851,0,0,1,7.062-1.064,116.912,116.912,0,0,0,14.164-1.208v-3.046a33.671,33.671,0,0,1-12.615,1.986q.918-22.238.913-32.389,0-7.832-.381-19.193,13.632-1.5,18.78-4.665a10.341,10.341,0,0,0,5.148-9.4q0-3.916-3.988-6.673a14.965,14.965,0,0,0-8.683-2.756,12.864,12.864,0,0,0-7.952,2.49q-3.3,2.49-3.3,5.148a6.168,6.168,0,0,0,2.1,4.666,7.107,7.107,0,0,0,5,1.957,6.847,6.847,0,0,0,4.711-1.788,5.323,5.323,0,0,0,2.01-4.061,3.3,3.3,0,0,0-1.3-2.345,4.29,4.29,0,0,0-2.947-1.184,2.477,2.477,0,0,0-1.668.7,2.109,2.109,0,0,0-.8,1.62,1.9,1.9,0,0,0,.294,1.014,4.154,4.154,0,0,1,2.073-.967h0Z" transform="translate(-1846.8 -221.62)" fill="#dbb77a" fill-rule="evenodd"/>
  </g>
</svg>
