<svg xmlns="http://www.w3.org/2000/svg" xmlns:xlink="http://www.w3.org/1999/xlink" width="175.021" height="54.9" viewBox="0 0 175.021 54.9">
  <defs>
    <linearGradient id="linear-gradient" x1="-2.395" y1="2.279" x2="-1.216" y2="3.399" gradientUnits="objectBoundingBox">
      <stop offset="0.121" stop-color="#ea6316"/>
      <stop offset="0.528" stop-color="#b23314"/>
      <stop offset="0.835" stop-color="#8f1513"/>
      <stop offset="1" stop-color="#820a13"/>
    </linearGradient>
    <linearGradient id="linear-gradient-2" x1="0.124" y1="0.465" x2="0.956" y2="0.527" xlink:href="#linear-gradient"/>
    <linearGradient id="linear-gradient-3" x1="-0.522" y1="0.208" x2="1.675" y2="0.796" gradientUnits="objectBoundingBox">
      <stop offset="0" stop-color="#fff"/>
      <stop offset="1" stop-color="#ea6316"/>
    </linearGradient>
  </defs>
  <g id="WienerLogo" transform="translate(-146.485 -123.424)">
    <g id="Group_1646" data-name="Group 1646" transform="translate(194.464 123.424)">
      <g id="Group_1645" data-name="Group 1645" transform="translate(4.921 46.177)">
        <path id="Path_3947" data-name="Path 3947" d="M1000.916,867.522l2.3,4.647-1.045-.48-.733.775-.558-.685-.557,1-.407-.861-1.011.8.508-4.763Z" transform="translate(-998.904 -867.522)" fill="url(#linear-gradient)"/>
        <path id="Path_3948" data-name="Path 3948" d="M1022.316,874.3l-.557-4.09,1.115,4.775Z" transform="translate(-1020.34 -870.041)" fill="#d75918"/>
        <path id="Path_3949" data-name="Path 3949" d="M1027.909,871.892l-2.036-4.37,1.608,4.205Z" transform="translate(-1024.199 -867.522)" fill="#d75918"/>
        <path id="Path_3950" data-name="Path 3950" d="M1006.192,872.353l.323-4.831.257,4.39Z" transform="translate(-1005.74 -867.522)" fill="#d75918"/>
      </g>
      <path id="Path_3951" data-name="Path 3951" d="M934.824,123.424a4.359,4.359,0,0,1-2.888,2.256,3.24,3.24,0,0,1-3.657,1.632,4.089,4.089,0,0,1-2.643.971c-6.295,11.531-7.037,26.081-5.037,38.76.941,5.964,10.247,4.789,9.3-1.191-1.853-11.744-1.448-26.048,5.786-36.04A4.58,4.58,0,0,0,934.824,123.424Z" transform="translate(-919.613 -123.424)" fill="url(#linear-gradient-2)"/>
      <path id="Path_3952" data-name="Path 3952" d="M967.486,189.426a5.841,5.841,0,0,1-1.552.212,48.628,48.628,0,0,0-5.755,15.841,60.538,60.538,0,0,0-.539,17.894c.292,2.476,1.8,3,1.4-1.94a70.344,70.344,0,0,1,.269-10.78C962.033,201.23,964.154,196.037,967.486,189.426Z" transform="translate(-956.763 -185.33)" fill="url(#linear-gradient-3)"/>
    </g>
    <path id="Path_3953" data-name="Path 3953" d="M194.808,271.361,184.66,303.134h-8.427l-5.8-18.412-6.075,18.412h-8.4l-9.474-31.773h8.636l5.517,20.53,6.727-20.53h6.564l6.262,20.53,6.005-20.53Z" transform="translate(0 -138.756)" fill="#fff"/>
    <path id="Path_3954" data-name="Path 3954" d="M1577.16,303.134H1568.9l-15.2-19.46v19.46h-8.263V271.361h8.263l15.2,19.436V271.361h8.263Z" transform="translate(-1312.133 -138.756)" fill="#fff"/>
    <path id="Path_3955" data-name="Path 3955" d="M2182.023,303.134h-18.086V271.361h18.086v6.89H2172.2v5.424h9.288v6.889H2172.2v5.68h9.823Z" transform="translate(-1892.252 -138.756)" fill="#fff"/>
    <path id="Path_3956" data-name="Path 3956" d="M2566.19,303.134h-10.265l-7.891-12.2v12.2h-8.263V271.361h12.849q5.633,0,8.333,3.375a9.915,9.915,0,0,1,2.188,6.4,9.091,9.091,0,0,1-2.514,6.727,8.8,8.8,0,0,1-4.422,2.235Zm-11.615-21.543a3.761,3.761,0,0,0-1.238-2.855,5.4,5.4,0,0,0-3.761-1.09h-1.542v7.914h1.542a5.343,5.343,0,0,0,3.761-1.091A3.831,3.831,0,0,0,2554.575,281.591Z" transform="translate(-2244.763 -138.756)" fill="#fff"/>
    <g id="Group_1647" data-name="Group 1647" transform="translate(206.482 132.605)">
      <path id="Path_3957" data-name="Path 3957" d="M1134.319,476.675v-6.889h-20.4a55.132,55.132,0,0,0-.644,6.889h21.046Z" transform="translate(-1113.273 -457.472)" fill="#fff"/>
      <path id="Path_3958" data-name="Path 3958" d="M1114.4,672.322c.125,2.351.362,4.661.686,6.89h20.826v-6.89H1114.4Z" transform="translate(-1114.332 -647.439)" fill="#fff"/>
      <path id="Path_3959" data-name="Path 3959" d="M1145.789,271.361a35.031,35.031,0,0,0-2.806,6.89h19.738v-6.89Z" transform="translate(-1141.139 -271.361)" fill="#fff"/>
    </g>
    <g id="Group_1648" data-name="Group 1648" transform="translate(206.482 132.605)">
      <path id="Path_3960" data-name="Path 3960" d="M1121.6,469.786h-7.686a55.132,55.132,0,0,0-.644,6.889h7.529A52.9,52.9,0,0,1,1121.6,469.786Z" transform="translate(-1113.273 -457.472)" fill="#9f0010"/>
      <path id="Path_3961" data-name="Path 3961" d="M1145.789,271.361a35.031,35.031,0,0,0-2.806,6.89h7.861a33.526,33.526,0,0,1,3.1-6.89Z" transform="translate(-1141.139 -271.361)" fill="#9f0010"/>
      <path id="Path_3962" data-name="Path 3962" d="M1122.384,679.213c-.289-2.237-.489-4.549-.573-6.89H1114.4c.125,2.351.362,4.661.686,6.89Z" transform="translate(-1114.332 -647.439)" fill="#9f0010"/>
    </g>
    <g id="Group_1649" data-name="Group 1649" transform="translate(233.531 167.162)">
      <path id="Path_3963" data-name="Path 3963" d="M1558.665,838.464a7.766,7.766,0,0,1-3.929.911,5.682,5.682,0,0,1-4.106-1.441,5.244,5.244,0,0,1-1.5-3.97,5.542,5.542,0,0,1,1.641-4.147,5.977,5.977,0,0,1,4.365-1.6,8.869,8.869,0,0,1,3.026.474v2.281a6.013,6.013,0,0,0-3.056-.723,3.28,3.28,0,0,0-2.465.982,4.193,4.193,0,0,0-.1,5.2,3.011,3.011,0,0,0,2.307.911,3.212,3.212,0,0,0,1.385-.248v-2.108h-2.16v-1.942h4.591Z" transform="translate(-1549.129 -828.212)" fill="#fff"/>
      <path id="Path_3964" data-name="Path 3964" d="M1877.649,841.917H1875l-.768-2.4h-3.839l-.76,2.4H1867l3.929-10.793h2.883Zm-3.974-4.268-1.159-3.628a4.72,4.72,0,0,1-.181-.971h-.06a4.121,4.121,0,0,1-.188.941l-1.174,3.658Z" transform="translate(-1847.272 -830.942)" fill="#fff"/>
      <path id="Path_3965" data-name="Path 3965" d="M2220.333,841.917h-2.183v-6.458q0-1.046.091-2.311h-.06q-.053.241-.12.482t-.135.455q-.068.215-.132.384t-.109.275l-2.047,3.937h-1.7l-1.979-3.952c-.02-.045-.048-.117-.083-.215s-.073-.216-.113-.354-.082-.292-.124-.463-.079-.354-.109-.55h-.068q.052.708.075,1.3t.023,1v6.466h-2.19V831.123h2.981l1.9,3.748q.083.181.166.384c.055.135.109.271.162.406s.1.267.143.4a2.674,2.674,0,0,1,.094.357h.038q.045-.166.1-.373t.113-.418q.061-.211.128-.41a3.335,3.335,0,0,1,.144-.357l1.957-3.733h3.041Z" transform="translate(-2168.393 -830.942)" fill="#fff"/>
      <path id="Path_3966" data-name="Path 3966" d="M2581.373,841.917H2574.9V831.123h6.225V833.1h-3.794v2.4h3.53v1.972h-3.53v2.469h4.042Z" transform="translate(-2511.242 -830.942)" fill="#fff"/>
      <path id="Path_3967" data-name="Path 3967" d="M2847.454,838.772v-2.409a4.625,4.625,0,0,0,1.423.824,4.571,4.571,0,0,0,1.55.275,3.43,3.43,0,0,0,.8-.083,1.877,1.877,0,0,0,.572-.23,1,1,0,0,0,.342-.346.864.864,0,0,0,.113-.433.935.935,0,0,0-.181-.565,1.946,1.946,0,0,0-.493-.459,5.2,5.2,0,0,0-.742-.406q-.429-.2-.926-.4a4.718,4.718,0,0,1-1.885-1.287,2.808,2.808,0,0,1-.621-1.837,2.927,2.927,0,0,1,.339-1.449,2.88,2.88,0,0,1,.922-1,4.139,4.139,0,0,1,1.351-.576,6.943,6.943,0,0,1,1.626-.185,9.762,9.762,0,0,1,1.494.1,5.877,5.877,0,0,1,1.2.312v2.25a3.66,3.66,0,0,0-.591-.331,4.7,4.7,0,0,0-.658-.237,5.044,5.044,0,0,0-.674-.139,4.762,4.762,0,0,0-.636-.045,3.317,3.317,0,0,0-.753.079,1.937,1.937,0,0,0-.572.222,1.1,1.1,0,0,0-.361.343.812.812,0,0,0-.128.448.855.855,0,0,0,.143.486,1.639,1.639,0,0,0,.406.406,4.3,4.3,0,0,0,.64.376q.376.185.851.38a9.479,9.479,0,0,1,1.163.576,4.135,4.135,0,0,1,.884.689,2.687,2.687,0,0,1,.565.877,3.5,3.5,0,0,1-.147,2.664,2.783,2.783,0,0,1-.929.994,4.033,4.033,0,0,1-1.366.546,7.908,7.908,0,0,1-1.645.166,9.144,9.144,0,0,1-1.69-.151A5.1,5.1,0,0,1,2847.454,838.772Z" transform="translate(-2766.84 -828.212)" fill="#fff"/>
    </g>
  </g>
</svg>
