<svg xmlns="http://www.w3.org/2000/svg" width="17.454" height="17.454" viewBox="0 0 17.454 17.454">
  <g id="menu_1_" data-name="menu(1)" transform="translate(-0.001)">
    <g id="Group_671" data-name="Group 671" transform="translate(0.001)">
      <g id="Group_670" data-name="Group 670" transform="translate(0)">
        <path id="Path_662" data-name="Path 662" d="M6.341,0H1.33A1.33,1.33,0,0,0,0,1.329V6.34A1.33,1.33,0,0,0,1.33,7.669H6.341A1.33,1.33,0,0,0,7.67,6.34V1.329A1.33,1.33,0,0,0,6.341,0Z" transform="translate(-0.001)" fill="#fff"/>
        <path id="Path_663" data-name="Path 663" d="M172.846,0h-5.011a1.33,1.33,0,0,0-1.329,1.329V6.34a1.33,1.33,0,0,0,1.329,1.329h5.011a1.33,1.33,0,0,0,1.329-1.329V1.329A1.33,1.33,0,0,0,172.846,0Z" transform="translate(-156.721)" fill="#fff"/>
        <path id="Path_664" data-name="Path 664" d="M6.341,166.507H1.33A1.33,1.33,0,0,0,0,167.836v5.011a1.33,1.33,0,0,0,1.329,1.329H6.341a1.33,1.33,0,0,0,1.329-1.329v-5.011A1.33,1.33,0,0,0,6.341,166.507Z" transform="translate(-0.001 -156.722)" fill="#fff"/>
        <path id="Path_665" data-name="Path 665" d="M172.846,166.507h-5.011a1.33,1.33,0,0,0-1.329,1.329v5.011a1.33,1.33,0,0,0,1.329,1.329h5.011a1.33,1.33,0,0,0,1.329-1.329v-5.011A1.33,1.33,0,0,0,172.846,166.507Z" transform="translate(-156.721 -156.722)" fill="#fff"/>
      </g>
    </g>
  </g>
</svg>
