<svg xmlns="http://www.w3.org/2000/svg" width="21.16" height="21.158" viewBox="0 0 21.16 21.158">
  <g id="chrome" transform="translate(0 -0.019)">
    <g id="Group_627" data-name="Group 627" transform="translate(2.555 0.019)">
      <g id="Group_626" data-name="Group 626" transform="translate(0 0)">
        <path id="Path_636" data-name="Path 636" d="M61.818,3.705l3.345,5.816a4.879,4.879,0,0,1,2.448-3.214,6.844,6.844,0,0,1,3.461-.51c2.035,0,5.793,0,8.193,0A10.576,10.576,0,0,0,61.818,3.705Z" transform="translate(-61.818 -0.019)" fill="#fff"/>
      </g>
    </g>
    <g id="Group_629" data-name="Group 629" transform="translate(7.061 7.082)">
      <g id="Group_628" data-name="Group 628">
        <path id="Path_637" data-name="Path 637" d="M174.359,170.9a3.518,3.518,0,1,0,3.517,3.518A3.519,3.519,0,0,0,174.359,170.9Z" transform="translate(-170.842 -170.9)" fill="#fff"/>
      </g>
    </g>
    <g id="Group_631" data-name="Group 631" transform="translate(0 4.823)">
      <g id="Group_630" data-name="Group 630" transform="translate(0)">
        <path id="Path_638" data-name="Path 638" d="M6.393,124.377c-.965-1.666-3.518-6.111-4.676-8.133A10.593,10.593,0,0,0,8.529,132.4l3.412-5.777A4.738,4.738,0,0,1,6.393,124.377Z" transform="translate(0 -116.244)" fill="#fff"/>
      </g>
    </g>
    <g id="Group_633" data-name="Group 633" transform="translate(9.918 7.079)">
      <g id="Group_632" data-name="Group 632">
        <path id="Path_639" data-name="Path 639" d="M250.6,170.836h-6.709a4.817,4.817,0,0,1,.889,5.923c-.838,1.447-3.517,5.966-4.814,8.153A10.587,10.587,0,0,0,250.6,170.836Z" transform="translate(-239.961 -170.836)" fill="#fff"/>
      </g>
    </g>
  </g>
</svg>
