<svg xmlns="http://www.w3.org/2000/svg" width="20.043" height="21.238" viewBox="0 0 20.043 21.238">
  <g id="internet-explorer" transform="translate(-0.385)">
    <path id="Path_641" data-name="Path 641" d="M18.5,0H17.67a11.126,11.126,0,0,0-2.85.919,15.127,15.127,0,0,1-2.3,1.288,5.927,5.927,0,0,1-1.378-.185C5.5,1.619,1.925,5.585,1.4,11.171,3.336,8.88,6.032,5.187,9.119,4.045,4.667,7.345.63,12.81.385,17.561v.827c.259,1.52.922,2.631,2.482,2.85H3.6a12.465,12.465,0,0,0,5.333-2.3c5.723.821,9.4-1.844,10.758-5.979H13.625c-.636,3.107-6.362,2.313-5.608-1.2H19.786c.306-5.641-2.474-8.191-6.527-9.47,1.262-.761,5.038-2.969,6.527-1.1.655.823.251,2.55.092,3.494a11.959,11.959,0,0,0,.551-2.022V1.838A2.152,2.152,0,0,0,18.5,0ZM8.473,18.8c-1.153.767-4.965,2.625-6.252.827-.908-1.267.178-3.216.644-4.32A9.2,9.2,0,0,0,8.473,18.8ZM13.786,8.587l-5.7,0C7.866,5.069,14.162,4.813,13.786,8.587Z" transform="translate(0)" fill="#fff"/>
  </g>
</svg>
