<svg xmlns="http://www.w3.org/2000/svg" xmlns:xlink="http://www.w3.org/1999/xlink" width="28" height="19" viewBox="0 0 28 19">
  <defs>
    <clipPath id="clip-path">
      <rect id="Rectangle_154" data-name="Rectangle 154" width="28" height="19" rx="2" fill="#fff"/>
    </clipPath>
  </defs>
  <g id="united-kingdom" clip-path="url(#clip-path)">
    <g id="united-kingdom-2" data-name="united-kingdom" transform="translate(0 0)">
      <rect id="Rectangle_153" data-name="Rectangle 153" width="28" height="19" transform="translate(0 0)" fill="#f0f0f0"/>
      <path id="Path_645" data-name="Path 645" d="M15.762,85.33h-3.5v7.589H0v3.5H12.259v7.589h3.5V96.421H28.021v-3.5H15.762Z" transform="translate(0 -85.33)" fill="#d80027"/>
      <g id="Group_638" data-name="Group 638" transform="translate(17.056 12.589)">
        <path id="Path_646" data-name="Path 646" d="M393.785,315.358l6.47,3.594v-3.594Z" transform="translate(-389.29 -315.358)" fill="#0052b4"/>
        <path id="Path_647" data-name="Path 647" d="M311.652,315.358l10.965,6.091v-1.722l-7.864-4.369Z" transform="translate(-311.652 -315.358)" fill="#0052b4"/>
        <path id="Path_648" data-name="Path 648" d="M319.7,349.467,311.652,345v4.469Z" transform="translate(-311.652 -343.376)" fill="#0052b4"/>
      </g>
      <path id="Path_649" data-name="Path 649" d="M311.652,315.358l10.965,6.091v-1.722l-7.864-4.369Z" transform="translate(-294.596 -302.769)" fill="#f0f0f0"/>
      <path id="Path_650" data-name="Path 650" d="M311.652,315.358l10.965,6.091v-1.722l-7.864-4.369Z" transform="translate(-294.596 -302.769)" fill="#d80027"/>
      <g id="Group_639" data-name="Group 639" transform="translate(0 12.589)">
        <path id="Path_651" data-name="Path 651" d="M4.944,315.356,0,318.1v-2.747Z" transform="translate(0 -315.356)" fill="#0052b4"/>
        <path id="Path_652" data-name="Path 652" d="M35.061,329.51v5.317h-9.57Z" transform="translate(-24.096 -328.735)" fill="#0052b4"/>
      </g>
      <path id="Path_653" data-name="Path 653" d="M7.864,315.358,0,319.727v1.722H0l10.965-6.091Z" transform="translate(0 -302.769)" fill="#d80027"/>
      <g id="Group_640" data-name="Group 640" transform="translate(0 0)">
        <path id="Path_654" data-name="Path 654" d="M6.47,134.552,0,130.958v3.594Z" transform="translate(0 -128.461)" fill="#0052b4"/>
        <path id="Path_655" data-name="Path 655" d="M10.965,91.421,0,85.33v1.722l7.864,4.369Z" transform="translate(0 -85.33)" fill="#0052b4"/>
        <path id="Path_656" data-name="Path 656" d="M53.366,85.33,61.41,89.8V85.33Z" transform="translate(-50.445 -85.33)" fill="#0052b4"/>
      </g>
      <path id="Path_657" data-name="Path 657" d="M10.965,91.421,0,85.33v1.722l7.864,4.369Z" transform="translate(0 -85.33)" fill="#f0f0f0"/>
      <path id="Path_658" data-name="Path 658" d="M10.965,91.421,0,85.33v1.722l7.864,4.369Z" transform="translate(0 -85.33)" fill="#d80027"/>
      <g id="Group_641" data-name="Group 641" transform="translate(17.056 0)">
        <path id="Path_659" data-name="Path 659" d="M421.659,149.193l4.944-2.747v2.747Z" transform="translate(-415.638 -143.101)" fill="#0052b4"/>
        <path id="Path_660" data-name="Path 660" d="M311.652,90.648V85.331h9.57Z" transform="translate(-311.652 -85.331)" fill="#0052b4"/>
      </g>
      <path id="Path_661" data-name="Path 661" d="M314.753,91.421l7.864-4.369V85.33h0l-10.965,6.091Z" transform="translate(-294.596 -85.33)" fill="#d80027"/>
    </g>
  </g>
</svg>
